<svg width="16" height="13" viewBox="0 0 16 13" fill="none" xmlns="http://www.w3.org/2000/svg">
<path d="M5.42402 12.192C4.49602 12.192 3.66936 11.9627 2.94402 11.504C2.21869 11.0454 1.64802 10.384 1.23202 9.52003C0.82669 8.64537 0.624023 7.60537 0.624023 6.40003C0.624023 5.1947 0.82669 4.16003 1.23202 3.29603C1.64802 2.42137 2.21869 1.7547 2.94402 1.29603C3.66936 0.837365 4.49602 0.608032 5.42402 0.608032C6.35202 0.608032 7.17869 0.837365 7.90402 1.29603C8.62936 1.7547 9.19469 2.42137 9.60002 3.29603C10.016 4.16003 10.224 5.1947 10.224 6.40003C10.224 7.60537 10.016 8.64537 9.60002 9.52003C9.19469 10.384 8.62936 11.0454 7.90402 11.504C7.17869 11.9627 6.35202 12.192 5.42402 12.192ZM5.42402 10C6.10669 10 6.64002 9.7067 7.02402 9.12003C7.41869 8.53337 7.61602 7.6267 7.61602 6.40003C7.61602 5.17337 7.41869 4.2667 7.02402 3.68003C6.64002 3.09337 6.10669 2.80003 5.42402 2.80003C4.75202 2.80003 4.21869 3.09337 3.82402 3.68003C3.44002 4.2667 3.24802 5.17337 3.24802 6.40003C3.24802 7.6267 3.44002 8.53337 3.82402 9.12003C4.21869 9.7067 4.75202 10 5.42402 10Z" fill="#F3C650"/>
<path d="M15.7096 0.800032V12H13.1176V2.88003H10.8776V0.800032H15.7096Z" fill="#F3C650"/>
</svg>
