<svg width="20" height="13" viewBox="0 0 20 13" fill="none" xmlns="http://www.w3.org/2000/svg">
<path d="M5.42402 12.1919C4.49602 12.1919 3.66936 11.9626 2.94402 11.5039C2.21869 11.0452 1.64802 10.3839 1.23202 9.51991C0.82669 8.64524 0.624023 7.60524 0.624023 6.39991C0.624023 5.19458 0.82669 4.15991 1.23202 3.29591C1.64802 2.42124 2.21869 1.75458 2.94402 1.29591C3.66936 0.837243 4.49602 0.60791 5.42402 0.60791C6.35202 0.60791 7.17869 0.837243 7.90402 1.29591C8.62936 1.75458 9.19469 2.42124 9.60002 3.29591C10.016 4.15991 10.224 5.19458 10.224 6.39991C10.224 7.60524 10.016 8.64524 9.60002 9.51991C9.19469 10.3839 8.62936 11.0452 7.90402 11.5039C7.17869 11.9626 6.35202 12.1919 5.42402 12.1919ZM5.42402 9.99991C6.10669 9.99991 6.64002 9.70658 7.02402 9.11991C7.41869 8.53324 7.61602 7.62658 7.61602 6.39991C7.61602 5.17324 7.41869 4.26658 7.02402 3.67991C6.64002 3.09324 6.10669 2.79991 5.42402 2.79991C4.75202 2.79991 4.21869 3.09324 3.82402 3.67991C3.44002 4.26658 3.24802 5.17324 3.24802 6.39991C3.24802 7.62658 3.44002 8.53324 3.82402 9.11991C4.21869 9.70658 4.75202 9.99991 5.42402 9.99991Z" fill="#F3C650"/>
<path d="M19.7576 9.88791V11.9999H11.2936V10.3199L15.6136 6.23991C16.0723 5.80258 16.3816 5.42924 16.5416 5.11991C16.7016 4.79991 16.7816 4.48524 16.7816 4.17591C16.7816 3.72791 16.627 3.38658 16.3176 3.15191C16.019 2.90658 15.5763 2.78391 14.9896 2.78391C14.499 2.78391 14.0563 2.87991 13.6616 3.07191C13.267 3.25324 12.9363 3.53058 12.6696 3.90391L10.7816 2.68791C11.219 2.03724 11.8216 1.53058 12.5896 1.16791C13.3576 0.794577 14.2376 0.60791 15.2296 0.60791C16.0616 0.60791 16.787 0.746577 17.4056 1.02391C18.035 1.29058 18.5203 1.67458 18.8616 2.17591C19.2136 2.66658 19.3896 3.24791 19.3896 3.91991C19.3896 4.52791 19.2616 5.09858 19.0056 5.63191C18.7496 6.16524 18.2536 6.77324 17.5176 7.45591L14.9416 9.88791H19.7576Z" fill="#F3C650"/>
</svg>
