<svg width="20" height="13" viewBox="0 0 20 13" fill="none" xmlns="http://www.w3.org/2000/svg">
<path d="M5.42402 12.192C4.49602 12.192 3.66936 11.9627 2.94402 11.504C2.21869 11.0454 1.64802 10.384 1.23202 9.52003C0.82669 8.64537 0.624023 7.60537 0.624023 6.40003C0.624023 5.1947 0.82669 4.16003 1.23202 3.29603C1.64802 2.42137 2.21869 1.7547 2.94402 1.29603C3.66936 0.837365 4.49602 0.608032 5.42402 0.608032C6.35202 0.608032 7.17869 0.837365 7.90402 1.29603C8.62936 1.7547 9.19469 2.42137 9.60002 3.29603C10.016 4.16003 10.224 5.1947 10.224 6.40003C10.224 7.60537 10.016 8.64537 9.60002 9.52003C9.19469 10.384 8.62936 11.0454 7.90402 11.504C7.17869 11.9627 6.35202 12.192 5.42402 12.192ZM5.42402 10C6.10669 10 6.64002 9.7067 7.02402 9.12003C7.41869 8.53337 7.61602 7.6267 7.61602 6.40003C7.61602 5.17337 7.41869 4.2667 7.02402 3.68003C6.64002 3.09337 6.10669 2.80003 5.42402 2.80003C4.75202 2.80003 4.21869 3.09337 3.82402 3.68003C3.44002 4.2667 3.24802 5.17337 3.24802 6.40003C3.24802 7.6267 3.44002 8.53337 3.82402 9.12003C4.21869 9.7067 4.75202 10 5.42402 10Z" fill="#F3C650"/>
<path d="M16.5591 5.36003C17.5405 5.52003 18.2925 5.88803 18.8151 6.46403C19.3378 7.02937 19.5991 7.73337 19.5991 8.57603C19.5991 9.2267 19.4285 9.82937 19.0871 10.384C18.7458 10.928 18.2231 11.3654 17.5191 11.696C16.8258 12.0267 15.9725 12.192 14.9591 12.192C14.1698 12.192 13.3911 12.0907 12.6231 11.888C11.8658 11.6747 11.2205 11.376 10.6871 10.992L11.6951 9.00803C12.1218 9.32803 12.6125 9.5787 13.1671 9.76003C13.7325 9.9307 14.3085 10.016 14.8951 10.016C15.5458 10.016 16.0578 9.89337 16.4311 9.64803C16.8045 9.39203 16.9911 9.0347 16.9911 8.57603C16.9911 7.6587 16.2925 7.20003 14.8951 7.20003H13.7111V5.48803L16.0151 2.88003H11.2471V0.800032H19.0871V2.48003L16.5591 5.36003Z" fill="#F3C650"/>
</svg>
