<svg width="22" height="13" viewBox="0 0 22 13" fill="none" xmlns="http://www.w3.org/2000/svg">
<path d="M5.42402 12.1919C4.49602 12.1919 3.66936 11.9626 2.94402 11.5039C2.21869 11.0452 1.64802 10.3839 1.23202 9.51991C0.82669 8.64524 0.624023 7.60524 0.624023 6.39991C0.624023 5.19458 0.82669 4.15991 1.23202 3.29591C1.64802 2.42124 2.21869 1.75458 2.94402 1.29591C3.66936 0.837243 4.49602 0.60791 5.42402 0.60791C6.35202 0.60791 7.17869 0.837243 7.90402 1.29591C8.62936 1.75458 9.19469 2.42124 9.60002 3.29591C10.016 4.15991 10.224 5.19458 10.224 6.39991C10.224 7.60524 10.016 8.64524 9.60002 9.51991C9.19469 10.3839 8.62936 11.0452 7.90402 11.5039C7.17869 11.9626 6.35202 12.1919 5.42402 12.1919ZM5.42402 9.99991C6.10669 9.99991 6.64002 9.70658 7.02402 9.11991C7.41869 8.53324 7.61602 7.62658 7.61602 6.39991C7.61602 5.17324 7.41869 4.26658 7.02402 3.67991C6.64002 3.09324 6.10669 2.79991 5.42402 2.79991C4.75202 2.79991 4.21869 3.09324 3.82402 3.67991C3.44002 4.26658 3.24802 5.17324 3.24802 6.39991C3.24802 7.62658 3.44002 8.53324 3.82402 9.11991C4.21869 9.70658 4.75202 9.99991 5.42402 9.99991Z" fill="#F3C650"/>
<path d="M21.7394 9.64791H19.9154V11.9999H17.3874V9.64791H11.3554V7.90391L16.6354 0.79991H19.3554L14.4594 7.53591H17.4674V5.43991H19.9154V7.53591H21.7394V9.64791Z" fill="#F3C650"/>
</svg>
