<svg width="21" height="13" viewBox="0 0 21 13" fill="none" xmlns="http://www.w3.org/2000/svg">
<path d="M5.42402 12.1919C4.49602 12.1919 3.66936 11.9626 2.94402 11.5039C2.21869 11.0452 1.64802 10.3839 1.23202 9.51991C0.82669 8.64524 0.624023 7.60524 0.624023 6.39991C0.624023 5.19458 0.82669 4.15991 1.23202 3.29591C1.64802 2.42124 2.21869 1.75458 2.94402 1.29591C3.66936 0.837243 4.49602 0.60791 5.42402 0.60791C6.35202 0.60791 7.17869 0.837243 7.90402 1.29591C8.62936 1.75458 9.19469 2.42124 9.60002 3.29591C10.016 4.15991 10.224 5.19458 10.224 6.39991C10.224 7.60524 10.016 8.64524 9.60002 9.51991C9.19469 10.3839 8.62936 11.0452 7.90402 11.5039C7.17869 11.9626 6.35202 12.1919 5.42402 12.1919ZM5.42402 9.99991C6.10669 9.99991 6.64002 9.70658 7.02402 9.11991C7.41869 8.53324 7.61602 7.62658 7.61602 6.39991C7.61602 5.17324 7.41869 4.26658 7.02402 3.67991C6.64002 3.09324 6.10669 2.79991 5.42402 2.79991C4.75202 2.79991 4.21869 3.09324 3.82402 3.67991C3.44002 4.26658 3.24802 5.17324 3.24802 6.39991C3.24802 7.62658 3.44002 8.53324 3.82402 9.11991C4.21869 9.70658 4.75202 9.99991 5.42402 9.99991Z" fill="#F3C650"/>
<path d="M16.8754 4.97591C17.5901 4.97591 18.2407 5.11991 18.8274 5.40791C19.4141 5.69591 19.8781 6.10658 20.2194 6.63991C20.5607 7.16258 20.7314 7.77058 20.7314 8.46391C20.7314 9.21058 20.5447 9.86658 20.1714 10.4319C19.7981 10.9972 19.2861 11.4346 18.6354 11.7439C17.9954 12.0426 17.2807 12.1919 16.4914 12.1919C14.9234 12.1919 13.6967 11.7119 12.8114 10.7519C11.9261 9.79191 11.4834 8.42124 11.4834 6.63991C11.4834 5.37058 11.7234 4.28258 12.2034 3.37591C12.6834 2.46924 13.3501 1.78124 14.2034 1.31191C15.0674 0.842577 16.0647 0.60791 17.1954 0.60791C17.7927 0.60791 18.3634 0.677243 18.9074 0.815909C19.4621 0.94391 19.9314 1.13058 20.3154 1.37591L19.3554 3.27991C18.8007 2.90658 18.1021 2.71991 17.2594 2.71991C16.3101 2.71991 15.5581 2.99724 15.0034 3.55191C14.4487 4.10658 14.1501 4.91191 14.1074 5.96791C14.7687 5.30658 15.6914 4.97591 16.8754 4.97591ZM16.3474 10.2559C16.9021 10.2559 17.3501 10.1066 17.6914 9.80791C18.0434 9.50924 18.2194 9.10391 18.2194 8.59191C18.2194 8.07991 18.0434 7.67458 17.6914 7.37591C17.3501 7.06658 16.8914 6.91191 16.3154 6.91191C15.7501 6.91191 15.2861 7.07191 14.9234 7.39191C14.5607 7.70124 14.3794 8.10124 14.3794 8.59191C14.3794 9.08258 14.5554 9.48258 14.9074 9.79191C15.2594 10.1012 15.7394 10.2559 16.3474 10.2559Z" fill="#F3C650"/>
</svg>
