<svg width="1086" height="90" viewBox="0 0 1086 90" fill="none" xmlns="http://www.w3.org/2000/svg">
<rect width="1086" height="90" fill="#E5E5E5"/>
<path d="M226.05 44.9499C167.508 -13.5923 72.5699 -13.5699 14 45" stroke="#F3C650" stroke-dasharray="5 5"/>
<path d="M649.05 44.9499C590.508 -13.5923 495.57 -13.5699 437 45" stroke="#F3C650" stroke-dasharray="5 5"/>
<path d="M1073.05 44.9499C1014.51 -13.5923 919.57 -13.5699 861 45" stroke="#F3C650" stroke-dasharray="5 5"/>
<path d="M226.001 45.0001C284.543 103.542 379.481 103.52 438.051 44.95" stroke="#F3C650" stroke-dasharray="5 5"/>
<path d="M649.001 45.0001C707.543 103.542 802.481 103.52 861.051 44.95" stroke="#F3C650" stroke-dasharray="5 5"/>
<circle cx="226" cy="45" r="14" fill="white"/>
<circle cx="437" cy="45" r="14" fill="white"/>
<circle cx="649" cy="45" r="14" fill="white"/>
<circle cx="861" cy="45" r="14" fill="white"/>
<circle cx="1072" cy="45" r="14" fill="white"/>
<circle cx="14" cy="45" r="14" fill="white"/>
<circle cx="437" cy="45" r="5" stroke="#8D8D8D" stroke-width="2"/>
<circle cx="226" cy="45" r="5" stroke="#8D8D8D" stroke-width="2"/>
<circle cx="14" cy="45" r="5" stroke="#8D8D8D" stroke-width="2"/>
<circle cx="649" cy="45" r="5" stroke="#8D8D8D" stroke-width="2"/>
<circle cx="861" cy="45" r="5" stroke="#8D8D8D" stroke-width="2"/>
<circle cx="1072" cy="45" r="5" stroke="#8D8D8D" stroke-width="2"/>
<path d="M226.05 44.9499C167.508 -13.5923 72.5699 -13.5699 14 45" stroke="#F3C650" stroke-dasharray="5 5"/>
<path d="M649.05 44.9499C590.508 -13.5923 495.57 -13.5699 437 45" stroke="#F3C650" stroke-dasharray="5 5"/>
<path d="M1073.05 44.9499C1014.51 -13.5923 919.57 -13.5699 861 45" stroke="#F3C650" stroke-dasharray="5 5"/>
<path d="M226.001 45.0001C284.543 103.542 379.481 103.52 438.051 44.95" stroke="#F3C650" stroke-dasharray="5 5"/>
<path d="M649.001 45.0001C707.543 103.542 802.481 103.52 861.051 44.95" stroke="#F3C650" stroke-dasharray="5 5"/>
<circle cx="226" cy="45" r="14" fill="white"/>
<circle cx="437" cy="45" r="14" fill="white"/>
<circle cx="649" cy="45" r="14" fill="white"/>
<circle cx="861" cy="45" r="14" fill="white"/>
<circle cx="1072" cy="45" r="14" fill="white"/>
<circle cx="14" cy="45" r="14" fill="white"/>
<circle cx="437" cy="45" r="5" stroke="#8D8D8D" stroke-width="2"/>
<circle cx="226" cy="45" r="5" stroke="#8D8D8D" stroke-width="2"/>
<circle cx="14" cy="45" r="5" stroke="#8D8D8D" stroke-width="2"/>
<circle cx="649" cy="45" r="5" stroke="#8D8D8D" stroke-width="2"/>
<circle cx="861" cy="45" r="5" stroke="#8D8D8D" stroke-width="2"/>
<circle cx="1072" cy="45" r="5" stroke="#8D8D8D" stroke-width="2"/>
</svg>
