<svg width="20" height="10" viewBox="0 0 20 10" fill="none" xmlns="http://www.w3.org/2000/svg">
<path d="M14.7 1.69998L16.1 3.19998C16.4 3.49998 16.2 3.99998 15.7 3.99998H0.8C0.3 3.99998 0 4.39998 0 4.99998C0 5.59998 0.3 5.99998 0.8 5.99998H15.7C16.1 5.99998 16.4 6.49998 16.1 6.89998L14.7 8.39997C14.3 8.79997 14.3 9.39998 14.7 9.79998C15.1 10.2 15.7 10.2 16.1 9.79998L19.3 6.49998C20 5.69998 20 4.49998 19.3 3.69998L16.2 0.399976C15.8 -2.44081e-05 15.2 -2.44081e-05 14.8 0.399976C14.3 0.599976 14.3 1.29998 14.7 1.69998Z" fill="#F3C650"/>
</svg>
