<svg width="1086" height="216" viewBox="0 0 1086 216" fill="none" xmlns="http://www.w3.org/2000/svg">
<path d="M226.05 107.95C167.508 49.4077 72.5699 49.4301 14 108" stroke="#F3C650" stroke-dasharray="5 5"/>
<path d="M649.05 107.95C590.508 49.4077 495.57 49.4301 437 108" stroke="#F3C650" stroke-dasharray="5 5"/>
<path d="M1073.05 107.95C1014.51 49.4077 919.57 49.4301 861 108" stroke="#F3C650" stroke-dasharray="5 5"/>
<path d="M226.001 108C284.543 166.542 379.481 166.52 438.051 107.95" stroke="#F3C650" stroke-dasharray="5 5"/>
<path d="M649.001 108C707.543 166.542 802.481 166.52 861.051 107.95" stroke="#F3C650" stroke-dasharray="5 5"/>
<circle cx="226" cy="108" r="14" fill="white"/>
<circle cx="437" cy="108" r="14" fill="white"/>
<circle cx="649" cy="108" r="14" fill="white"/>
<circle cx="861" cy="108" r="14" fill="white"/>
<circle cx="1072" cy="108" r="14" fill="white"/>
<circle cx="14" cy="108" r="14" fill="white"/>
<circle cx="437" cy="108" r="5" stroke="#8D8D8D" stroke-width="2"/>
<circle cx="226" cy="108" r="5" stroke="#8D8D8D" stroke-width="2"/>
<circle cx="14" cy="108" r="5" stroke="#8D8D8D" stroke-width="2"/>
<circle cx="649" cy="108" r="5" stroke="#8D8D8D" stroke-width="2"/>
<circle cx="861" cy="108" r="5" stroke="#8D8D8D" stroke-width="2"/>
<circle cx="1072" cy="108" r="5" stroke="#8D8D8D" stroke-width="2"/>
<path d="M226.05 107.95C167.508 49.4077 72.5699 49.4301 14 108" stroke="#F3C650" stroke-dasharray="5 5"/>
<path d="M649.05 107.95C590.508 49.4077 495.57 49.4301 437 108" stroke="#F3C650" stroke-dasharray="5 5"/>
<path d="M1073.05 107.95C1014.51 49.4077 919.57 49.4301 861 108" stroke="#F3C650" stroke-dasharray="5 5"/>
<path d="M226.001 108C284.543 166.542 379.481 166.52 438.051 107.95" stroke="#F3C650" stroke-dasharray="5 5"/>
<path d="M649.001 108C707.543 166.542 802.481 166.52 861.051 107.95" stroke="#F3C650" stroke-dasharray="5 5"/>
<circle cx="226" cy="108" r="14" fill="white"/>
<circle cx="437" cy="108" r="14" fill="white"/>
<circle cx="649" cy="108" r="14" fill="white"/>
<circle cx="861" cy="108" r="14" fill="white"/>
<circle cx="1072" cy="108" r="14" fill="white"/>
<circle cx="14" cy="108" r="14" fill="white"/>
<circle cx="437" cy="108" r="5" stroke="#8D8D8D" stroke-width="2"/>
<circle cx="226" cy="108" r="5" stroke="#8D8D8D" stroke-width="2"/>
<circle cx="14" cy="108" r="5" stroke="#8D8D8D" stroke-width="2"/>
<circle cx="649" cy="108" r="5" stroke="#8D8D8D" stroke-width="2"/>
<circle cx="861" cy="108" r="5" stroke="#8D8D8D" stroke-width="2"/>
<circle cx="1072" cy="108" r="5" stroke="#8D8D8D" stroke-width="2"/>
</svg>
